<svg width="116" height="116" viewBox="0 0 116 116" fill="none" xmlns="http://www.w3.org/2000/svg">
<g filter="url(#filter0_d)">
<path d="M58 108C85.6142 108 108 85.6142 108 58C108 30.3858 85.6142 8 58 8C30.3858 8 8 30.3858 8 58C8 85.6142 30.3858 108 58 108Z" fill="white"/>
<path d="M63 47.2857L57.8214 52.8214C55.9855 54.621 53.5172 55.629 50.9464 55.629C48.3757 55.629 45.9073 54.621 44.0714 52.8214L43.7143 52.2857L55.6786 39.9643C57.2304 38.327 59.0994 37.023 61.1718 36.1319C63.2442 35.2408 65.4763 34.7812 67.7322 34.7812C69.988 34.7812 72.2202 35.2408 74.2925 36.1319C76.3649 37.023 78.234 38.327 79.7857 39.9643C82.4971 42.8031 84.2083 46.449 84.6595 50.3486C85.1107 54.2482 84.2773 58.1885 82.2857 61.5714" stroke="#222222" stroke-width="4.53225" stroke-linecap="square"/>
<path d="M65.1428 55.1428L73.7143 64.0714C75.0992 65.475 75.8758 67.3675 75.8758 69.3393C75.8758 71.3111 75.0992 73.2036 73.7143 74.6071L69.7857 78.7143C67.1481 81.4059 63.5538 82.9463 59.7857 83C55.9635 82.9547 52.3105 81.4166 49.6071 78.7143L36.2143 64.6071C33.0484 61.2861 31.2823 56.8739 31.2823 52.2857C31.2823 47.6975 33.0484 43.2853 36.2143 39.9643C37.6746 38.3316 39.4636 37.0262 41.464 36.1337C43.4644 35.2412 45.6309 34.7818 47.8214 34.7857" stroke="#5268E7" stroke-width="4.53225" stroke-linecap="square"/>
<path d="M72.2857 75.8571L63.3572 66.9286" stroke="#5268E7" stroke-width="4.53225"/>
<path d="M66.9286 81.2143L58 72.2857" stroke="#5268E7" stroke-width="4.53225"/>
</g>
<defs>
<filter id="filter0_d" x="0.537313" y="0.537313" width="114.925" height="114.925" filterUnits="userSpaceOnUse" color-interpolation-filters="sRGB">
<feFlood flood-opacity="0" result="BackgroundImageFix"/>
<feColorMatrix in="SourceAlpha" type="matrix" values="0 0 0 0 0 0 0 0 0 0 0 0 0 0 0 0 0 0 127 0"/>
<feOffset/>
<feGaussianBlur stdDeviation="3.73134"/>
<feColorMatrix type="matrix" values="0 0 0 0 0 0 0 0 0 0 0 0 0 0 0 0 0 0 0.25 0"/>
<feBlend mode="normal" in2="BackgroundImageFix" result="effect1_dropShadow"/>
<feBlend mode="normal" in="SourceGraphic" in2="effect1_dropShadow" result="shape"/>
</filter>
</defs>
</svg>
